HIERARCHY
ROOT Hips
{
	OFFSET 0.00000 0.00000 0.00000
	CHANNELS 6 Xposition Yposition Zposition Zrotation Yrotation Xrotation 
	JOINT LHipJoint
	{
		OFFSET 0 0 0
		CHANNELS 3 Zrotation Yrotation Xrotation
		JOINT LeftHip
		{
			OFFSET 1.58895 -1.83665 0.71753
			CHANNELS 3 Zrotation Yrotation Xrotation
			JOINT LeftKnee
			{
				OFFSET 2.50528 -6.88321 0.00000
				CHANNELS 3 Zrotation Yrotation Xrotation
				JOINT LeftAnkle
				{
					OFFSET 2.63244 -7.23257 0.00000
					CHANNELS 3 Zrotation Yrotation Xrotation
					JOINT LeftToe
					{
						OFFSET 0.23691 -0.65090 1.72750
						CHANNELS 3 Zrotation Yrotation Xrotation
						End Site
						{
							OFFSET 0.00000 -0.00000 0.92561
						}
					}
				}
			}
		}
	}
	JOINT RHipJoint
	{
		OFFSET 0 0 0
		CHANNELS 3 Zrotation Yrotation Xrotation
		JOINT RightHip
		{
			OFFSET -1.51435 -1.83665 0.71753
			CHANNELS 3 Zrotation Yrotation Xrotation
			JOINT RightKnee
			{
				OFFSET -2.54551 -6.99375 0.00000
				CHANNELS 3 Zrotation Yrotation Xrotation
				JOINT RightAnkle
				{
					OFFSET -2.66027 -7.30903 0.00000
					CHANNELS 3 Zrotation Yrotation Xrotation
					JOINT RightToe
					{
						OFFSET -0.22981 -0.63138 2.03959
						CHANNELS 3 Zrotation Yrotation Xrotation
						End Site
						{
							OFFSET -0.00000 -0.00000 1.07060
						}
					}
				}
			}
		}
	}
	JOINT lowerback
	{
		OFFSET 0 0 0
		CHANNELS 3 Zrotation Yrotation Xrotation
		JOINT Chest
		{
			OFFSET -0.02651 1.86275 -0.11152
			CHANNELS 3 Zrotation Yrotation Xrotation
			JOINT Chest2
			{
				OFFSET 0.01019 1.86224 0.04087
				CHANNELS 3 Zrotation Yrotation Xrotation
				JOINT lowerneck
				{
					OFFSET 0 0 0
					CHANNELS 3 Zrotation Yrotation Xrotation
					JOINT Neck
					{
						OFFSET -0.01926 1.80512 0.08867
						CHANNELS 3 Zrotation Yrotation Xrotation
						JOINT Head
						{
							OFFSET 0.05516 1.76451 -0.38475
							CHANNELS 3 Zrotation Yrotation Xrotation
							End Site
							{
								OFFSET 0.01592 1.82587 -0.14001
							}
						}
					}
				}
				JOINT LeftCollar
				{
					OFFSET 0 0 0
					CHANNELS 3 Zrotation Yrotation Xrotation
					JOINT LeftShoulder
					{
						OFFSET 3.47116 1.51376 0.14491
CHANNELS 3 Zrotation Xrotation Yrotation
						JOINT LeftElbow
						{
OFFSET 0 -4.780950 0.000000
CHANNELS 3 Zrotation Xrotation Yrotation
							JOINT LeftWrist
							{
OFFSET 0 -3.586150 -0.000000
CHANNELS 3 Zrotation Xrotation Yrotation
								JOINT lhand
								{
									OFFSET 0 0 0
CHANNELS 3 Zrotation Xrotation Yrotation
									JOINT LFingers
									{
OFFSET 0 -0.659810 0.000000
CHANNELS 3 Zrotation Xrotation Yrotation
										End Site
										{
OFFSET 0 -0.531960 0.000000
										}
									}
								}
								JOINT LThumb
								{
OFFSET 0 0.000000 0.000000
CHANNELS 3 Zrotation Xrotation Yrotation
									End Site
									{
OFFSET 0 -0.540080 0.540080
									}
								}
							}
						}
					}
				}
				JOINT RightCollar
				{
					OFFSET 0 0 0
					CHANNELS 3 Zrotation Yrotation Xrotation
					JOINT RightShoulder
					{
						OFFSET -3.31725 1.61216 0.35156
CHANNELS 3 Zrotation Xrotation Yrotation
						JOINT RightElbow
						{
OFFSET 0 -4.489130 0.000000
CHANNELS 3 Zrotation Xrotation Yrotation
							JOINT RightWrist
							{
OFFSET 0 -3.705100 0.000000
CHANNELS 3 Zrotation Xrotation Yrotation
								JOINT rhand
								{
									OFFSET 0 0 0
CHANNELS 3 Zrotation Xrotation Yrotation
									JOINT RFingers
									{
OFFSET 0 -0.449140 0.000000
CHANNELS 3 Zrotation Xrotation Yrotation
										End Site
										{
OFFSET 0 -0.362110 0.000000
										}
									}
								}
								JOINT RThumb
								{
OFFSET 0 0.000000 0.000000
CHANNELS 3 Zrotation Xrotation Yrotation
									End Site
									{
OFFSET 0 -0.367630 0.367630
									}
								}
							}
						}
					}
				}
			}
		}
	}
}
MOTION
Frames: 4
Frame Time: 0.008333333333333333
-0.599600 18.193800 5.523400 -2.138000 -3.813900 4.394700 0.000000 0.000000 0.000000 -12.562300 -5.832500 12.382600 0.268300 -3.332000 -9.204400 -0.569600 16.430300 -16.507600 0.235900 -3.125900 -8.629400 0.000000 0.000000 0.000000 15.461300 0.993400 7.162300 -0.184600 2.767400 -7.631900 -0.235400 -7.138600 -14.429200 -0.034500 -1.198700 3.295600 1.043700 1.768700 -2.191300 -0.109000 2.354600 -4.090700 -0.704500 1.143800 -2.927300 -1.839100 -2.924300 -9.524500 4.701000 -4.878300 23.134000 1.393500 -1.973000 8.961600 -0.000000 0.000000 0.000000 -0.433800 14.445700 -29.897700 20.462400 -31.195400 5.768900 7.213600 0.592500 23.336200 0.000000 0.000000 0.000000 -7.125000 0.000000 0.000000 -13.574800 7.011800 -12.171600 -0.000000 0.000000 0.000000 2.131800 21.150000 23.199300 -24.251700 -35.429300 -7.852000 -10.565900 21.021600 37.884900 0.000000 0.000000 0.000000 7.125000 0.000000 -0.000000 31.363900 65.745400 -16.419900
-0.599041 18.193893 5.523121 -2.142937 -3.791263 4.433825 0.000000 0.000000 0.000000 -12.550097 -5.866967 12.338817 0.268114 -3.330975 -9.201698 -0.569693 16.426294 -16.498005 0.219598 -3.016722 -8.325248 0.000000 0.000000 0.000000 15.466051 0.984271 7.114046 -0.184507 2.766562 -7.629478 -0.232978 -7.149033 -14.404421 -0.032357 -1.161904 3.194433 1.054785 1.761341 -2.224091 -0.112447 2.344260 -4.099922 -0.713163 1.138304 -2.917984 -1.846739 -2.912656 -9.457521 4.725500 -4.863395 23.076616 1.405517 -1.966200 8.929461 0.000000 0.000000 0.000000 -0.453269 14.417753 -29.874877 20.451967 -31.183010 5.763497 7.243503 0.557194 23.384548 0.000000 0.000000 0.000000 -7.125000 0.000000 0.000000 -13.556635 6.961962 -12.167874 0.000000 0.000000 0.000000 2.141768 21.147485 23.221005 -24.269586 -35.448024 -7.862340 -10.733673 21.147825 37.947966 0.000000 0.000000 0.000000 7.125000 0.000000 0.000000 31.269441 65.845635 -16.437320
-0.598223 18.194159 5.523186 -2.141833 -3.783817 4.460263 0.000000 0.000000 0.000000 -12.546870 -5.884086 12.304097 0.267410 -3.326412 -9.188985 -0.567887 16.416592 -16.505327 0.207956 -2.935681 -8.099811 0.000000 0.000000 0.000000 15.463552 0.983859 7.087714 -0.184845 2.768830 -7.635860 -0.231764 -7.152044 -14.388877 -0.032200 -1.158682 3.185619 1.065008 1.762526 -2.247560 -0.123057 2.345313 -4.099910 -0.728991 1.138504 -2.904008 -1.852996 -2.901011 -9.431281 4.767003 -4.853237 23.031144 1.421936 -1.958881 8.909752 0.000000 0.000000 0.000000 -0.461605 14.389289 -29.845408 20.448352 -31.178734 5.761633 7.297400 0.574279 23.471044 0.000000 0.000000 0.000000 -7.125000 0.000000 0.000000 -13.524142 6.872680 -12.160954 0.000000 0.000000 0.000000 2.165200 21.123996 23.236151 -24.275820 -35.454579 -7.865948 -10.901618 21.240390 37.973056 0.000000 0.000000 0.000000 7.125000 0.000000 0.000000 31.123972 65.914712 -16.402954
-0.597623 18.194359 5.523836 -2.136435 -3.775589 4.471311 0.000000 0.000000 0.000000 -12.548963 -5.894426 12.297113 0.267538 -3.327289 -9.191371 -0.571573 16.441880 -16.501594 0.210671 -2.954694 -8.152708 0.000000 0.000000 0.000000 15.458094 0.980721 7.068922 -0.183946 2.762445 -7.618146 -0.234063 -7.142149 -14.413401 -0.033630 -1.184426 3.256442 1.072142 1.766138 -2.255986 -0.141626 2.349653 -4.096621 -0.751664 1.140189 -2.894748 -1.835146 -2.902717 -9.428695 4.794676 -4.864435 23.010693 1.427102 -1.960105 8.903027 0.000000 0.000000 0.000000 -0.440767 14.378822 -29.851648 20.463714 -31.196954 5.769585 7.305441 0.599889 23.511059 0.000000 0.000000 0.000000 -7.125000 0.000000 0.000000 -13.519438 6.832956 -12.167211 0.000000 0.000000 0.000000 2.197328 21.107347 23.238538 -24.288917 -35.468353 -7.873552 -10.809485 21.192968 38.032800 0.000000 0.000000 0.000000 7.125000 0.000000 0.000000 31.302413 65.937691 -16.521584
